<?xml version="1.0" encoding="UTF-8" standalone="no"?>
<svg
   xmlns:dc="http://purl.org/dc/elements/1.1/"
   xmlns:cc="http://creativecommons.org/ns#"
   xmlns:rdf="http://www.w3.org/1999/02/22-rdf-syntax-ns#"
   xmlns:svg="http://www.w3.org/2000/svg"
   xmlns="http://www.w3.org/2000/svg"
   xmlns:xlink="http://www.w3.org/1999/xlink"
   xmlns:sodipodi="http://sodipodi.sourceforge.net/DTD/sodipodi-0.dtd"
   xmlns:inkscape="http://www.inkscape.org/namespaces/inkscape"
   width="100px"
   height="100px"
   viewBox="0 0 100 100"
   version="1.1"
   id="svg18"
   sodipodi:docname="icon.svg"
   inkscape:version="0.92.4 (5da689c313, 2019-01-14)">
  <metadata
     id="metadata22">
    <rdf:RDF>
      <cc:Work
         rdf:about="">
        <dc:format>image/svg+xml</dc:format>
        <dc:type
           rdf:resource="http://purl.org/dc/dcmitype/StillImage" />
        <dc:title>eclispe-che</dc:title>
      </cc:Work>
    </rdf:RDF>
  </metadata>
  <sodipodi:namedview
     pagecolor="#ffffff"
     bordercolor="#666666"
     borderopacity="1"
     objecttolerance="10"
     gridtolerance="10"
     guidetolerance="10"
     inkscape:pageopacity="0"
     inkscape:pageshadow="2"
     inkscape:window-width="3370"
     inkscape:window-height="1376"
     id="namedview20"
     showgrid="false"
     inkscape:pagecheckerboard="true"
     inkscape:zoom="4.72"
     inkscape:cx="4.8939435"
     inkscape:cy="48.99602"
     inkscape:window-x="70"
     inkscape:window-y="27"
     inkscape:window-maximized="1"
     inkscape:current-layer="layer1" />
  <!-- Generator: Sketch 45.2 (43514) - http://www.bohemiancoding.com/sketch -->
  <title
     id="title2">eclispe-che</title>
  <desc
     id="desc4">Created with Sketch.</desc>
  <defs
     id="defs7">
    <path
       d="M50.0004412,4.04252804e-14 C22.3871247,4.04252804e-14 0,22.3848726 0,49.9995588 C0,77.6133626 22.3871247,100 50.0004412,100 C77.6137577,100 100,77.6133626 100,49.9995588 C100,22.3848726 77.6128753,3.55271368e-14 50.0004412,4.04252804e-14 Z"
       id="path-1" />
    <clipPath
       id="clipPath18">
      <path
         id="path20"
         d="m 0,0 2463.79,0 0,1098 L 0,1098 0,0 z" />
    </clipPath>
    <clipPath
       id="clipPath18-3">
      <path
         inkscape:connector-curvature="0"
         id="path20-6"
         d="M 0,0 H 2463.79 V 1098 H 0 Z" />
    </clipPath>
  </defs>
  <g
     inkscape:groupmode="layer"
     id="layer1"
     inkscape:label="BACKGROUND">
    <g
       style="fill:#4abdff;fill-opacity:1;fill-rule:evenodd;stroke:none;stroke-width:1;stroke-opacity:1"
       id="Page-1">
      <g
         id="eclispe-che"
         style="fill:#4abdff;fill-opacity:1;stroke:none;stroke-opacity:1">
        <g
           id="path3023-path"
           style="fill:#4abdff;fill-opacity:1;stroke:none;stroke-opacity:1">
          <use
             xlink:href="#path-1"
             id="use9"
             style="fill:#4abdff;fill-opacity:1;fill-rule:evenodd;stroke:none;stroke-opacity:1"
             x="0"
             y="0"
             width="100%"
             height="100%" />
          <path
             d="M 50.000441,0.5 C 22.662621,0.5 0.5,22.661661 0.5,49.999559 0.5,77.337051 22.663098,99.5 50.000441,99.5 77.337613,99.5 99.5,77.337222 99.5,49.999559 99.5,22.661796 77.337514,0.5 50.000441,0.5 Z"
             id="path11"
             style="fill:#4abdff;fill-opacity:1;stroke:none;stroke-width:1;stroke-opacity:1"
             inkscape:connector-curvature="0" />
        </g>
      </g>
    </g>
    <g
       style="opacity:1"
       id="g10"
       transform="matrix(0.35225125,0,0,-0.35225125,5.7588917,69.12673)">
      <g
         id="g12"
         transform="scale(0.1)">
        <g
           id="g14">
          <g
             id="g16"
             clip-path="url(#clipPath18-3)">
            <path
               style="fill:#5549a7;fill-opacity:1;fill-rule:nonzero;stroke:none"
               id="path22"
               d="M 1917.92,1098.01 C 1616.39,1098.01 1372,853.566 1372,552.113 1372,250.582 1616.39,6.17188 1917.92,6.17188 c 301.48,0 545.87,244.41012 545.87,545.94112 0,301.453 -244.39,545.897 -545.87,545.897 m 0,-897.233 c -194.03,0 -351.33,157.285 -351.33,351.285 0,194.012 157.3,351.321 351.33,351.321 193.98,0 351.3,-157.309 351.3,-351.321 0,-194 -157.32,-351.285 -351.3,-351.285"
               inkscape:connector-curvature="0" />
            <path
               style="fill:#5549a7;fill-opacity:1;fill-rule:nonzero;stroke:none"
               id="path24"
               d="M 1055.35,831.906 917.441,693.957 1071.26,548.988 918.652,405.152 1056.5,267.281 1338.23,548.988 1055.35,831.906"
               inkscape:connector-curvature="0" />
            <path
               style="fill:#9a9a96;fill-opacity:1;fill-rule:nonzero;stroke:none"
               id="path26"
               d="M 548.184,0 C 412.102,0 288.652,47.2188 181.328,140.582 60.957,245.758 0,384.41 0,552.617 c 0,149.336 55.2227,279.035 164.082,385.559 107.766,106.004 239.297,159.814 390.762,159.814 150.254,0 280.91,-54.41 388.144,-161.623 L 800.566,793.918 c -69.101,69.07 -149.461,102.656 -245.722,102.656 -98.106,0 -179.785,-33.445 -249.715,-102.176 -69.797,-68.363 -103.691,-147.394 -103.691,-241.781 0,-109.027 36.753,-194.125 112.222,-260.082 70.461,-61.23 147.18,-91.113 234.524,-91.113 99.738,0 182.414,33.359 252.785,101.933 L 941.594,159.078 C 833.262,53.5117 700.906,0 548.184,0"
               inkscape:connector-curvature="0" />
          </g>
        </g>
      </g>
    </g>
  </g>
  <g
     inkscape:groupmode="layer"
     id="layer2"
     inkscape:label="PLACE LOGO HERE"
     style="opacity:1" />
</svg>
